<?xml version="1.0" standalone="no"?>
<!DOCTYPE svg PUBLIC "-//W3C//DTD SVG 20010904//EN"
 "http://www.w3.org/TR/2001/REC-SVG-20010904/DTD/svg10.dtd">
<svg version="1.0" xmlns="http://www.w3.org/2000/svg"
 width="300.000000pt" height="300.000000pt" viewBox="0 0 300.000000 300.000000"
 preserveAspectRatio="xMidYMid meet">
<metadata>
Created by potrace 1.10, written by Peter Selinger 2001-2011
</metadata>
<g transform="translate(0.000000,300.000000) scale(0.100000,-0.100000)"
fill="#000000" stroke="none">
<path d="M1335 2484 c-178 -40 -326 -124 -451 -257 -176 -187 -254 -423 -225
-678 29 -260 146 -447 396 -635 128 -95 144 -112 179 -178 25 -48 26 -54 26
-240 0 -230 2 -236 85 -236 45 0 55 -3 60 -20 10 -30 54 -60 91 -60 35 0 94
41 94 66 0 11 16 14 64 14 58 0 67 3 85 26 20 25 21 40 21 214 0 148 3 195 16
225 19 47 109 138 191 193 283 192 430 499 393 825 -40 348 -292 636 -640 733
-82 23 -299 27 -385 8z m359 -50 c156 -39 262 -100 386 -224 82 -81 103 -110
147 -195 69 -136 88 -218 88 -375 0 -92 -5 -144 -19 -195 -55 -200 -150 -335
-331 -471 -169 -126 -244 -211 -245 -276 0 -10 -7 -18 -16 -18 -12 0 -15 7
-11 28 3 15 18 95 33 178 l28 151 58 1 c115 1 219 62 249 146 7 20 19 36 27
36 24 0 91 42 108 68 23 35 48 149 47 217 -1 126 -31 215 -88 263 -21 17 -35
40 -39 63 -6 34 -73 119 -94 119 -5 0 -14 11 -20 25 -22 48 -92 112 -151 139
-55 25 -202 53 -220 42 -4 -3 -32 4 -62 15 -57 22 -68 22 -305 1 -112 -10
-175 -36 -200 -82 -7 -14 -13 -19 -14 -12 0 7 -13 12 -32 12 -24 0 -43 -12
-87 -55 -31 -30 -73 -68 -93 -85 -50 -42 -82 -110 -75 -161 3 -21 1 -42 -4
-45 -24 -14 4 -117 37 -137 7 -4 15 -20 19 -35 3 -15 17 -40 31 -56 25 -26
119 -76 145 -76 17 0 38 -31 39 -58 0 -27 59 -92 83 -92 8 0 20 -7 28 -16 7
-8 29 -24 49 -34 29 -15 39 -27 43 -52 43 -247 81 -443 94 -490 3 -12 -1 -18
-11 -18 -9 0 -18 12 -22 28 -18 78 -78 145 -242 267 -167 125 -266 261 -323
445 -20 64 -24 96 -24 220 0 166 13 228 74 355 114 239 367 423 622 454 86 10
221 3 293 -15z m-139 -285 c5 -5 -32 -69 -50 -87 -2 -3 -16 5 -31 17 -28 22
-64 28 -64 11 0 -5 6 -10 13 -10 6 0 23 -9 36 -19 l25 -19 -26 -31 c-15 -17
-29 -44 -33 -61 -8 -36 -20 -38 -46 -7 -13 16 -18 18 -19 7 0 -22 29 -60 46
-60 9 0 14 -11 15 -32 1 -24 5 -17 14 28 20 101 79 178 136 176 46 -1 57 -17
31 -45 -12 -13 -22 -31 -22 -40 0 -20 -4 -21 -31 -7 -25 14 -24 2 2 -26 11
-12 23 -40 26 -63 8 -62 23 -49 23 20 0 71 20 114 61 128 40 14 114 6 153 -17
24 -14 33 -16 30 -7 -11 27 -91 57 -142 54 -30 -2 -58 3 -79 14 -18 9 -39 17
-48 17 -23 0 -18 19 8 29 35 14 156 3 225 -20 45 -15 76 -34 112 -69 28 -27
50 -52 50 -57 0 -4 -17 -13 -37 -20 -31 -9 -41 -9 -54 3 -18 16 -69 19 -69 4
0 -5 8 -10 17 -10 23 0 53 -29 53 -52 0 -24 12 -23 28 2 17 28 56 42 85 31 28
-11 87 -70 87 -88 0 -8 5 -11 10 -8 6 3 10 2 10 -4 0 -5 -5 -11 -12 -13 -7 -3
-9 -14 -4 -32 4 -17 12 -26 19 -23 22 8 59 -129 48 -175 -5 -22 -5 -38 0 -38
5 0 9 3 10 8 0 4 2 27 5 51 2 25 -1 60 -7 79 -6 18 -9 36 -6 39 9 9 40 -60 48
-107 22 -124 22 -145 -1 -191 -12 -24 -29 -52 -38 -62 -19 -21 -9 -35 13 -17
26 21 27 5 2 -31 -24 -37 -108 -84 -132 -75 -8 3 -15 14 -15 25 0 11 -5 23
-11 27 -7 4 -10 -5 -7 -27 3 -31 0 -34 -25 -37 -16 -2 -26 -8 -24 -15 2 -7 11
-11 21 -9 9 2 16 -3 16 -10 0 -8 5 -6 11 5 13 22 29 22 29 0 0 -22 -48 -83
-66 -83 -7 0 -14 -5 -14 -11 0 -6 -11 3 -25 19 -14 17 -25 36 -25 44 0 8 -12
25 -26 39 -25 23 -25 22 6 -31 18 -30 37 -61 43 -68 8 -10 7 -16 -4 -23 -22
-14 -25 -12 -38 40 -7 27 -23 58 -35 70 l-24 22 24 -48 c30 -62 34 -96 13
-101 -13 -2 -17 8 -21 50 -5 45 -11 57 -43 85 -22 18 -32 33 -24 33 8 0 20 -5
27 -12 9 -9 12 -9 12 1 0 15 66 7 87 -11 11 -9 18 -7 31 5 15 16 15 17 -3 17
-11 0 -28 7 -37 14 -13 9 -44 12 -115 8 -57 -2 -130 1 -173 8 -94 16 -128 15
-208 -10 -85 -26 -138 -25 -193 3 -51 27 -71 60 -64 102 6 28 5 29 -10 11 -8
-11 -15 -28 -15 -38 0 -24 -9 -23 -37 4 -31 29 -30 71 3 97 24 19 25 21 7 21
-11 0 -26 -7 -33 -15 -17 -20 -30 -10 -30 25 0 47 10 60 44 60 28 1 29 2 14
14 -17 12 -17 14 0 28 42 37 107 60 185 66 l79 5 -7 -31 c-3 -17 -2 -39 3 -48
7 -13 11 -7 16 25 7 49 42 76 92 73 19 -2 47 4 63 13 46 23 119 19 166 -10 42
-26 79 -32 90 -15 4 6 -6 10 -22 10 -48 0 -56 14 -23 38 32 24 74 96 67 115
-2 7 -11 -1 -20 -18 -39 -71 -81 -101 -122 -85 -14 5 -40 10 -56 10 -29 0 -30
2 -24 34 4 18 2 36 -3 40 -5 3 -12 -13 -16 -35 -5 -34 -12 -42 -41 -55 -52
-21 -72 -18 -80 14 -7 29 -32 62 -47 62 -5 0 -2 -10 6 -22 21 -30 20 -71 -2
-84 -10 -7 -47 -11 -83 -9 l-64 2 -5 44 c-7 52 -33 110 -62 136 -12 10 -19 14
-16 8 2 -5 14 -30 25 -55 12 -25 24 -66 28 -91 l7 -46 -46 -13 c-45 -12 -47
-12 -66 13 -22 27 -100 62 -122 54 -8 -3 -1 -9 17 -16 50 -19 69 -31 86 -54
16 -22 15 -24 -27 -60 l-44 -39 -43 21 -42 20 1 103 c0 100 9 163 24 183 4 6
10 24 14 40 6 29 6 29 -11 -5 -35 -70 -47 -116 -48 -195 -1 -44 -5 -88 -9 -97
-10 -22 42 -75 77 -80 18 -2 21 -8 19 -33 -5 -39 -6 -40 -41 -22 -21 10 -31
12 -31 4 0 -6 -20 9 -45 33 -25 24 -45 52 -45 63 0 10 -11 29 -25 42 -46 47
-42 132 5 103 12 -8 22 -7 36 1 17 11 17 12 1 7 -10 -3 -28 -1 -39 5 -16 9
-19 17 -14 42 4 23 3 28 -4 17 -21 -32 -8 8 23 72 17 37 40 70 49 73 10 4 37
26 60 51 48 51 93 78 115 70 8 -3 31 8 53 25 43 35 91 48 171 49 70 0 86 -15
70 -61 -16 -47 -38 -59 -73 -42 -21 11 -35 12 -56 5 -24 -9 -25 -11 -5 -11 28
-1 73 -21 73 -33 0 -5 -6 -23 -14 -41 -12 -30 -17 -33 -49 -29 -32 4 -36 7
-35 33 1 17 -4 35 -10 41 -9 9 -12 2 -12 -30 0 -36 -4 -44 -24 -52 -13 -5 -27
-14 -31 -19 -12 -21 -33 -10 -51 27 l-19 37 -3 -30 c-3 -22 3 -35 22 -51 l25
-22 -21 -27 c-18 -23 -27 -26 -60 -22 -44 6 -50 -4 -12 -22 34 -15 90 2 99 30
11 33 54 77 84 84 37 8 81 -10 81 -33 0 -10 7 -27 15 -38 14 -17 14 -16 9 23
-5 31 -2 50 10 67 9 14 16 34 16 45 0 11 14 30 30 43 17 12 30 29 30 38 0 27
29 58 58 63 22 3 21 4 -9 6 -35 1 -56 20 -41 36 8 8 178 3 187 -6z m-42 -910
c4 -14 -6 -36 -28 -67 -58 -83 -69 -127 -73 -320 l-4 -173 -26 3 c-20 2 -28 9
-30 28 -3 27 -80 452 -88 485 -4 18 1 20 53 22 32 0 85 10 118 21 75 26 72 26
78 1z m81 -21 c13 -18 27 -46 31 -63 4 -16 9 -38 12 -47 3 -12 -1 -18 -11 -18
-12 0 -16 10 -16 35 0 27 -8 42 -35 66 -19 18 -35 38 -35 46 0 24 28 14 54
-19z m65 -20 c24 -32 31 -53 31 -86 0 -35 -3 -43 -17 -40 -11 2 -20 21 -28 60
-6 32 -19 66 -28 76 -21 23 -22 32 -3 32 8 0 28 -19 45 -42z m49 2 c18 -27 22
-45 20 -84 -4 -72 -28 -74 -28 -3 0 45 -5 61 -25 85 -29 35 -31 45 -8 40 10
-2 28 -19 41 -38z m45 23 c31 -5 67 -35 74 -61 11 -44 9 -95 -4 -99 -9 -3 -13
7 -13 34 -1 21 -8 52 -16 68 -8 17 -12 22 -10 13 14 -49 18 -118 7 -118 -6 0
-11 18 -11 45 0 25 -7 61 -14 80 -20 47 -27 45 -10 -2 14 -41 17 -82 8 -107
-12 -31 -19 -15 -20 44 -1 41 -6 66 -17 78 -20 22 -23 47 -4 35 6 -4 20 -9 30
-10z m-200 -78 c4 -25 0 -45 -13 -68 -10 -18 -22 -55 -26 -84 -5 -40 -11 -53
-28 -58 -18 -6 -19 -8 -4 -12 16 -4 18 -18 17 -106 0 -56 3 -110 6 -119 6 -15
1 -18 -29 -18 -34 0 -36 1 -36 35 0 21 5 35 13 36 10 0 10 2 0 6 -19 7 -16 34
5 49 16 13 16 13 0 14 -16 0 -18 11 -18 91 0 85 1 91 22 97 18 4 19 7 6 11
-15 5 -15 10 -1 50 17 52 62 123 73 116 4 -2 10 -21 13 -40z m41 9 c3 -9 6
-23 6 -32 -1 -15 -3 -14 -15 2 -17 22 -20 46 -6 46 5 0 12 -7 15 -16z m39 -99
c20 -8 48 -15 62 -15 30 0 29 10 5 -120 -11 -58 -25 -135 -31 -172 l-12 -68
-63 0 -62 0 3 151 c4 139 12 194 37 243 7 12 13 15 17 8 4 -6 23 -18 44 -27z
m85 -428 c3 -15 -16 -17 -207 -17 -194 0 -211 1 -211 18 0 16 16 17 208 16
184 -1 207 -3 210 -17z m0 -57 c-3 -13 -35 -15 -211 -16 -181 0 -207 2 -207
15 0 14 27 16 210 16 182 0 210 -2 208 -15z m2 -56 c0 -11 -16 -14 -67 -15
-358 -5 -353 -5 -353 11 0 13 29 15 210 17 177 1 210 0 210 -13z m0 -59 c0
-13 -31 -15 -210 -15 -168 0 -210 3 -210 13 0 11 43 14 210 15 180 2 210 0
210 -13z m0 -60 c0 -13 -32 -15 -210 -15 -176 0 -210 2 -210 14 0 13 34 15
210 15 178 0 210 -2 210 -14z m0 -51 c0 -3 -5 -14 -10 -25 -10 -18 -23 -19
-198 -19 -189 0 -212 4 -212 37 0 10 44 13 210 13 116 0 210 -3 210 -6z m-250
-74 c13 7 20 6 24 -3 5 -9 7 -9 12 1 5 10 9 9 20 -5 13 -17 14 -17 8 0 -7 20
1 23 9 3 3 -8 -5 -27 -19 -43 -18 -21 -23 -23 -18 -8 7 18 6 18 -9 6 -15 -12
-17 -11 -17 5 0 14 -2 16 -9 6 -6 -10 -10 -8 -14 8 -3 12 -10 19 -16 15 -7 -4
-8 0 -4 11 4 11 8 13 11 6 2 -8 9 -9 22 -2z"/>
<path d="M1135 2087 c-16 -8 -39 -24 -49 -36 -11 -11 -29 -21 -42 -21 -15 0
-29 -12 -43 -36 -28 -47 -27 -50 10 -20 17 14 37 26 44 26 7 0 32 16 55 35 44
37 93 51 137 40 22 -5 25 -4 16 5 -17 18 -94 22 -128 7z"/>
<path d="M1728 1994 c-13 -12 -9 -79 5 -93 10 -10 9 -15 -5 -25 -29 -21 -21
-27 15 -10 56 27 93 0 113 -81 10 -40 18 -6 10 39 -8 44 -40 76 -76 76 -34 0
-42 11 -50 63 -3 22 -8 35 -12 31z"/>
<path d="M945 1958 c-15 -18 -39 -35 -53 -38 -38 -8 -39 -28 -1 -22 29 4 31 2
26 -17 -3 -11 -1 -21 4 -21 5 0 9 8 9 18 0 9 11 38 25 65 30 55 27 59 -10 15z"/>
<path d="M1944 1798 c25 -35 20 -101 -9 -136 -14 -17 -25 -39 -25 -50 0 -26
-35 -69 -70 -87 -38 -20 -53 -19 -46 3 3 9 1 24 -4 32 -8 12 -10 9 -10 -12 0
-50 -61 -85 -100 -57 -11 8 -12 12 -2 16 14 5 46 62 39 69 -3 3 -18 -8 -34
-25 -44 -43 -123 -63 -157 -38 -23 17 -13 57 25 99 36 37 31 49 -8 18 -34 -26
-52 -57 -53 -87 0 -29 -39 -54 -94 -60 -38 -5 -45 -3 -51 16 -9 30 -45 61 -69
61 -17 0 -15 -5 14 -29 29 -25 33 -32 24 -48 -8 -13 -26 -19 -68 -21 -53 -3
-59 -1 -87 29 -21 22 -29 27 -29 15 0 -18 37 -60 61 -68 11 -4 12 -8 2 -19
-20 -20 -15 -74 8 -100 18 -21 20 -21 13 -4 -14 38 -14 80 -1 97 18 22 96 28
107 8 5 -8 16 -24 24 -35 20 -26 21 0 1 35 -21 37 -20 39 38 37 38 -1 64 5 90
20 41 25 53 17 35 -22 -9 -19 -9 -28 0 -37 9 -9 12 -6 12 14 0 32 15 44 60 46
19 2 42 5 51 7 9 3 22 -1 29 -10 7 -9 29 -15 51 -15 33 0 41 -4 49 -24 8 -21
37 -46 54 -46 3 0 -6 16 -19 36 -14 20 -23 40 -20 44 3 4 21 11 40 14 47 9
112 68 121 109 14 65 45 85 79 51 9 -9 19 -13 23 -9 4 4 -6 18 -23 33 -23 19
-30 35 -32 64 -1 40 -25 88 -44 88 -5 0 -3 -10 5 -22z"/>
<path d="M2073 1698 c1 -72 -16 -111 -53 -123 -14 -4 -19 -12 -16 -22 10 -26
-32 -99 -74 -128 -22 -15 -40 -29 -40 -31 0 -3 17 3 37 11 49 21 80 51 95 92
7 18 15 33 19 33 9 0 37 -83 42 -125 2 -16 4 2 5 40 0 58 -3 74 -20 92 l-21
22 20 18 c36 31 43 72 23 133 l-18 55 1 -67z"/>
<path d="M2015 1398 c-56 -49 -110 -62 -165 -40 -19 8 -87 16 -150 19 -100 5
-120 3 -143 -12 -26 -17 -101 -18 -137 -2 -10 5 -20 -3 -32 -23 -10 -18 -35
-39 -60 -50 -36 -15 -39 -19 -18 -19 29 -1 82 24 93 45 6 11 20 13 58 8 36 -5
62 -2 97 12 34 13 71 18 132 17 99 -2 172 -23 214 -61 25 -23 28 -24 22 -7
-13 35 -11 40 16 43 19 2 30 -3 39 -19 11 -21 12 -21 22 -4 7 14 6 21 -7 30
-14 11 -14 14 -2 25 9 6 20 9 25 6 6 -4 19 11 31 34 11 22 19 40 17 40 -2 0
-26 -19 -52 -42z"/>
</g>
</svg>
